<?xml version="1.0" encoding="UTF-8" standalone="no"?>
<!-- Uploaded to: SVG Repo, www.svgrepo.com, Generator: SVG Repo Mixer Tools -->

<svg
   width="666.74323"
   height="728.53461"
   viewBox="0 0 20.002297 21.856038"
   fill="none"
   version="1.1"
   id="svg1"
   sodipodi:docname="3d.svg"
   inkscape:version="1.4.2 (ebf0e940d0, 2025-05-08)"
   xmlns:inkscape="http://www.inkscape.org/namespaces/inkscape"
   xmlns:sodipodi="http://sodipodi.sourceforge.net/DTD/sodipodi-0.dtd"
   xmlns="http://www.w3.org/2000/svg"
   xmlns:svg="http://www.w3.org/2000/svg">
  <defs
     id="defs1" />
  <sodipodi:namedview
     id="namedview1"
     pagecolor="#ffffff"
     bordercolor="#000000"
     borderopacity="0.25"
     inkscape:showpageshadow="2"
     inkscape:pageopacity="0.0"
     inkscape:pagecheckerboard="0"
     inkscape:deskcolor="#d1d1d1"
     inkscape:zoom="1.4025"
     inkscape:cx="333.68984"
     inkscape:cy="362.21034"
     inkscape:window-width="3440"
     inkscape:window-height="1330"
     inkscape:window-x="0"
     inkscape:window-y="0"
     inkscape:window-maximized="1"
     inkscape:current-layer="svg1" />
  <path
     d="m 7.7511483,19.606037 1.473,0.8183 c 0.2836,0.1576 0.4254,0.2363 0.5756,0.2672 0.1329,0.0274 0.2698997,0.0274 0.4028997,0 0.1501,-0.0309 0.2919,-0.1096 0.5755,-0.2672 l 1.473,-0.8183 m -8.9999997,-2.5 -1.42703,-0.7928 c -0.29951,-0.1664 -0.44929,-0.2496 -0.55834,-0.368 -0.09647,-0.1046 -0.16948,-0.2287 -0.21415,-0.3639 -0.05048,-0.1528 -0.05048,-0.3241 -0.05048,-0.6668 v -1.5585 m 0,-5.0000096 v -1.55856 c 0,-0.34264 0,-0.51396 0.05048,-0.66676 0.04467,-0.13518 0.11768,-0.25926 0.21415,-0.36395 0.10905,-0.11834 0.25882,-0.20154 0.55834,-0.36794 l 1.42703,-0.79279 m 4.5,-2.50001 1.473,-0.81831 c 0.2836,-0.15756 0.4254,-0.23634 0.5756,-0.26723 0.1329,-0.02733 0.2698997,-0.02733 0.4028997,0 0.1501,0.03089 0.2919,0.10967 0.5755,0.26723 l 1.473,0.81831 m 4.5,2.5 1.427,0.7928 c 0.2996,0.1664 0.4493,0.2496 0.5584,0.36794 0.0964,0.10469 0.1695,0.22877 0.2141,0.36395 0.0505,0.1528 0.0505,0.32412 0.0505,0.66676 v 1.55855 m 0,5.0000196 v 1.5585 c 0,0.3427 0,0.514 -0.0505,0.6668 -0.0446,0.1352 -0.1177,0.2593 -0.2141,0.3639 -0.1091,0.1184 -0.2588,0.2016 -0.5584,0.368 l -1.427,0.7928 M 7.7511483,9.6060374 10.001148,10.856037 m 0,0 2.25,-1.2499996 m -2.25,1.2499996 v 2.5 m -8.9999997,-7.5000196 2.25,1.25 m 13.4999997,0 2.25,-1.25 m -9,12.5000196 v 2.5"
     stroke="#000000"
     stroke-width="2"
     stroke-linecap="round"
     stroke-linejoin="round"
     id="path1" />
</svg>
