<?xml version="1.0" encoding="UTF-8" standalone="no"?>
<!-- Uploaded to: SVG Repo, www.svgrepo.com, Generator: SVG Repo Mixer Tools -->

<svg
   width="666.66669"
   height="600"
   viewBox="0 0 20.000001 18"
   fill="none"
   version="1.1"
   id="svg2"
   sodipodi:docname="camera.svg"
   inkscape:version="1.4.2 (ebf0e940d0, 2025-05-08)"
   xmlns:inkscape="http://www.inkscape.org/namespaces/inkscape"
   xmlns:sodipodi="http://sodipodi.sourceforge.net/DTD/sodipodi-0.dtd"
   xmlns="http://www.w3.org/2000/svg"
   xmlns:svg="http://www.w3.org/2000/svg">
  <defs
     id="defs2" />
  <sodipodi:namedview
     id="namedview2"
     pagecolor="#ffffff"
     bordercolor="#000000"
     borderopacity="0.25"
     inkscape:showpageshadow="2"
     inkscape:pageopacity="0.0"
     inkscape:pagecheckerboard="0"
     inkscape:deskcolor="#d1d1d1"
     inkscape:zoom="1.4025"
     inkscape:cx="332.62032"
     inkscape:cy="332.97683"
     inkscape:window-width="3440"
     inkscape:window-height="1330"
     inkscape:window-x="0"
     inkscape:window-y="0"
     inkscape:window-maximized="1"
     inkscape:current-layer="svg2" />
  <path
     d="M 13.0858,1.58579 C 12.7107,1.21071 12.202,1 11.6716,1 H 8.3284 C 7.79799,1 7.28929,1.21071 6.91421,1.58579 L 6.08579,2.41421 C 5.71071,2.78929 5.20201,3 4.67157,3 H 3 C 1.89543,3 1,3.89543 1,5 v 10 c 0,1.1046 0.89543,2 2,2 h 14 c 1.1046,0 2,-0.8954 2,-2 V 5 C 19,3.89543 18.1046,3 17,3 H 15.3284 C 14.798,3 14.2893,2.78929 13.9142,2.41421 Z"
     stroke="#000000"
     stroke-width="2"
     stroke-linecap="round"
     stroke-linejoin="round"
     id="path1" />
  <path
     fill-rule="evenodd"
     clip-rule="evenodd"
     d="m 10,14 c 2.2091,0 4,-1.7909 4,-4 0,-2.20914 -1.7909,-4 -4,-4 -2.20914,0 -4,1.79086 -4,4 0,2.2091 1.79086,4 4,4 z"
     stroke="#000000"
     stroke-width="2"
     stroke-linecap="round"
     stroke-linejoin="round"
     id="path2" />
</svg>
